<?xml version="1.0" standalone="no"?><!DOCTYPE svg PUBLIC "-//W3C//DTD SVG 1.1//EN" "http://www.w3.org/Graphics/SVG/1.1/DTD/svg11.dtd"><svg t="1530154921168" class="icon" style="" viewBox="0 0 1258 1024" version="1.1" xmlns="http://www.w3.org/2000/svg" p-id="1962" xmlns:xlink="http://www.w3.org/1999/xlink" width="245.703125" height="200"><defs><style type="text/css"></style></defs><path d="M110.25572 86.82638h716.66218c60.640646 0 110.25572 49.615074 110.25572 110.25572v716.66218c0 60.640646-49.615074 110.25572-110.25572 110.25572H110.25572c-60.640646 0-110.25572-49.615074-110.25572-110.25572v-716.66218c0-62.018843 49.615074-110.25572 110.25572-110.25572z" fill="#2F77F1" p-id="1963"></path><path d="M1237.620458 281.152086L995.057873 485.125168c-19.294751 11.025572-45.480485 4.13459-56.506056-15.160161-4.13459-6.890983-5.512786-13.781965-5.512786-20.672948v-135.063257c-143.332436-85.448183-329.388964-38.589502-414.837147 106.121131-27.56393 46.858681-42.724092 100.608345-42.724091 154.358008-4.13459-24.807537-6.890983-49.615074-6.890983-75.800808 0-228.780619 184.678331-413.45895 413.45895-413.45895 16.538358 0 33.076716 1.378197 49.615074 2.756393V41.345895c0-23.429341 17.916555-41.345895 41.345895-41.345895 6.890983 0 13.781965 1.378197 20.672948 5.512786l242.562584 203.973082c19.294751 11.025572 26.185734 37.211306 15.160162 56.506057-2.756393 6.890983-6.890983 11.025572-13.781965 15.160161z" fill="#AFFCFE" p-id="1964"></path></svg>